<?xml version="1.0" standalone="no"?>
<!DOCTYPE svg PUBLIC "-//W3C//DTD SVG 20010904//EN"
 "http://www.w3.org/TR/2001/REC-SVG-20010904/DTD/svg10.dtd">
<svg version="1.0" xmlns="http://www.w3.org/2000/svg"
 width="197.000000pt" height="200.000000pt" viewBox="0 0 197.000000 200.000000"
 preserveAspectRatio="xMidYMid meet">

<g transform="translate(0.000000,200.000000) scale(0.100000,-0.100000)"
fill="#000000" stroke="none">
<path d="M1385 1694 c-5 -1 -26 -5 -46 -8 -46 -8 -116 -68 -140 -120 -23 -50
-24 -127 -3 -171 63 -134 231 -172 337 -76 137 123 81 329 -99 369 -22 5 -43
8 -49 6z m85 -189 l54 -28 -94 -47 c-52 -26 -98 -46 -102 -43 -10 5 -11 177
-1 186 3 4 25 -4 47 -17 23 -13 66 -36 96 -51z"/>
<path d="M475 981 c-54 -25 -113 -86 -125 -130 -45 -162 55 -302 215 -302 65
0 111 18 154 62 72 72 89 164 47 255 -51 110 -186 164 -291 115z m127 -158
c84 -43 89 -47 72 -61 -20 -14 -170 -92 -179 -92 -3 0 -5 45 -5 100 0 66 4
100 11 100 6 0 51 -21 101 -47z"/>
<path d="M915 501 c-120 -54 -160 -209 -82 -314 47 -62 107 -90 182 -84 75 6
124 34 165 94 55 85 37 212 -40 276 -57 48 -154 61 -225 28z m205 -191 c0 -9
-179 -98 -184 -92 -8 7 -8 177 0 184 5 6 184 -83 184 -92z"/>
</g>
</svg>
